<svg width="20" height="20" viewBox="0 0 20 20" fill="none" xmlns="http://www.w3.org/2000/svg">
<path d="M9.9 20C15.3676 20 19.8 15.5676 19.8 10.1C19.8 4.63239 15.3676 0.200012 9.9 0.200012C4.43238 0.200012 0 4.63239 0 10.1C0 15.5676 4.43238 20 9.9 20Z" fill="#92BC2C"/>
<path fill-rule="evenodd" clip-rule="evenodd" d="M11.6836 5.00979C11.6908 4.99941 11.7051 4.99688 11.7155 5.00415L12.4256 5.50133C12.436 5.5086 12.4385 5.52292 12.4312 5.5333L11.4429 6.94467C11.9234 7.09816 12.2507 7.26373 12.2507 7.26373C12.2507 7.26373 11.4506 8.63994 10.0936 8.63994C8.73662 8.63994 7.77234 7.35729 7.77234 7.35729C7.77234 7.35729 8.11426 7.13908 8.62109 6.95194L7.53711 5.66011C7.52896 5.6504 7.53023 5.63592 7.53994 5.62777L8.20395 5.0706C8.21367 5.06245 8.22814 5.06372 8.23629 5.07343L9.60879 6.70911C9.72631 6.69582 9.84604 6.68839 9.96686 6.68839C10.1405 6.68839 10.3139 6.70159 10.4833 6.72399L11.6836 5.00979ZM11.952 8.70512C12.3142 8.44648 12.8621 7.77145 12.8621 7.77145C12.8621 7.77145 14.2618 8.88063 14.2618 11.2325C14.2618 13.5844 11.842 14.9998 11.842 14.9998C11.842 14.9998 10.6858 13.8322 10.402 12.3521C10.1182 10.8721 10.8218 9.22857 10.8218 9.22857C10.8218 9.22857 11.5899 8.96375 11.952 8.70512ZM8.05197 8.70512C7.68984 8.44648 7.14188 7.77145 7.14188 7.77145C7.14188 7.77145 5.74219 8.88063 5.74219 11.2325C5.74219 13.5844 8.16203 14.9998 8.16203 14.9998C8.16203 14.9998 9.31818 13.8322 9.60201 12.3521C9.88582 10.8721 9.18217 9.22857 9.18217 9.22857C9.18217 9.22857 8.41412 8.96375 8.05197 8.70512Z" fill="white"/>
</svg>
