<svg width="20" height="20" viewBox="0 0 20 20" fill="none" xmlns="http://www.w3.org/2000/svg">
<path d="M9.9 20C15.3676 20 19.8 15.5676 19.8 10.1C19.8 4.63239 15.3676 0.200012 9.9 0.200012C4.43238 0.200012 0 4.63239 0 10.1C0 15.5676 4.43238 20 9.9 20Z" fill="#595761"/>
<g clip-path="url(#clip0_64_216)">
<path fill-rule="evenodd" clip-rule="evenodd" d="M9.48006 13.8447C9.67004 13.8738 9.86461 13.8889 10.0627 13.8889C12.1721 13.8889 13.8822 12.1789 13.8822 10.0695C13.8822 7.96002 12.1721 6.25 10.0627 6.25C9.92121 6.25 9.78147 6.2577 9.64395 6.2727C10.6903 7.06545 11.3822 8.43871 11.3822 10C11.3822 11.6414 10.6175 13.075 9.48006 13.8447ZM9.99328 15C12.7547 15 14.9933 12.7614 14.9933 10C14.9933 7.23857 12.7547 5 9.99328 5C7.23186 5 4.99329 7.23857 4.99329 10C4.99329 12.7614 7.23186 15 9.99328 15Z" fill="white"/>
</g>
<defs>
<clipPath id="clip0_64_216">
<rect width="10" height="10" fill="white" transform="translate(5 5)"/>
</clipPath>
</defs>
</svg>
