<svg width="20" height="20" viewBox="0 0 20 20" fill="none" xmlns="http://www.w3.org/2000/svg">
<path d="M9.9 20C15.3676 20 19.8 15.5676 19.8 10.1C19.8 4.63239 15.3676 0.200012 9.9 0.200012C4.43238 0.200012 0 4.63239 0 10.1C0 15.5676 4.43238 20 9.9 20Z" fill="#0C69C8"/>
<path fill-rule="evenodd" clip-rule="evenodd" d="M10.4825 9.97814C10.5502 9.93682 10.6077 9.85021 10.6541 9.75396C11.2644 10.0034 11.6932 10.5928 11.6932 11.2801C11.6932 12.1932 10.9364 12.9334 10.0028 12.9334C9.61953 12.9334 9.26607 12.8086 8.98254 12.5984C8.88953 12.5544 8.81301 12.5121 8.75039 12.4774C8.65326 12.4237 8.58957 12.3885 8.54969 12.394C8.4331 12.4101 8.46695 12.5174 8.49771 12.6148C8.51859 12.681 8.53807 12.7427 8.50793 12.7681C8.47641 12.7947 8.3743 12.6974 8.25498 12.5836C8.09256 12.4288 7.89826 12.2435 7.80664 12.2992C7.7342 12.3432 7.80453 12.4625 7.89062 12.6086L7.89701 12.6195C7.93338 12.6812 7.97553 12.7441 8.01398 12.8015C8.09217 12.9181 8.15514 13.0121 8.12363 13.028C8.08555 13.0472 7.82019 12.8681 7.59658 12.6195C7.51027 12.5235 7.42668 12.4195 7.34898 12.3228V12.3228C7.17893 12.1112 7.03725 11.9349 6.95771 11.9558C6.86204 11.9809 6.93442 12.1783 7.04076 12.3682C7.09049 12.457 7.14898 12.5474 7.19963 12.6257V12.6257C7.2784 12.7475 7.33818 12.8399 7.3165 12.8513C7.28725 12.8665 7.0298 12.6155 6.85495 12.2992C6.75109 12.1113 6.66388 11.9036 6.59328 11.7355C6.51672 11.5532 6.45969 11.4174 6.42213 11.4037C6.29165 11.3562 6.29165 11.6222 6.34398 12.0062C6.35081 12.0563 6.36097 12.1088 6.37349 12.1623C6.881 13.8044 8.44 15 10.2845 15C12.5407 15 14.3697 13.2112 14.3697 11.0045C14.3697 8.9043 12.7129 7.18256 10.6078 7.02137C10.6105 6.92243 10.6621 6.72623 10.6621 6.72623C10.6621 6.72623 11.0337 5.82709 11.0534 5.63496C11.0547 5.62221 11.0562 5.60835 11.0579 5.59359C11.081 5.38599 11.1241 5 10.792 5C10.6147 5 10.5322 5.13193 10.4379 5.28281V5.28281C10.4017 5.34074 10.3637 5.40146 10.318 5.45857C9.98851 5.86999 9.43453 6.38377 9.12041 6.65748C8.45646 7.23602 7.80506 7.71148 7.42514 7.98879L7.42512 7.98881C7.25232 8.11492 7.1357 8.20006 7.09961 8.23523C6.82762 8.50039 5.85238 10.2595 5.85238 10.2595C5.85238 10.2595 5.537 10.8239 5.6491 10.9383C5.7612 11.0528 6.03153 11.0266 6.03153 11.0266C6.03153 11.0266 9.66318 10.1934 9.98832 10.1277C10.0759 10.11 10.1377 10.0998 10.1851 10.092C10.3139 10.0707 10.337 10.0669 10.4825 9.97814ZM7.91475 8.9075C7.7198 9.09279 7.3965 9.53508 7.3965 9.53508C7.3965 9.53508 7.99736 9.57209 8.32828 9.25754C8.65922 8.94297 8.5834 8.40689 8.5834 8.40689C8.5834 8.40689 8.10967 8.72221 7.91475 8.9075Z" fill="white"/>
</svg>
