<svg width="20" height="20" viewBox="0 0 20 20" fill="none" xmlns="http://www.w3.org/2000/svg">
<path d="M9.9 20C15.3676 20 19.8 15.5676 19.8 10.1C19.8 4.63239 15.3676 0.200012 9.9 0.200012C4.43238 0.200012 0 4.63239 0 10.1C0 15.5676 4.43238 20 9.9 20Z" fill="#F2D94E"/>
<path fill-rule="evenodd" clip-rule="evenodd" d="M6.98134 2.81643C6.97854 2.80839 6.98454 2.79999 6.99306 2.79999H12.0602C12.0656 2.79999 12.0704 2.80353 12.0721 2.80871L14.3995 10.3282C14.4019 10.3362 14.396 10.3443 14.3876 10.3443H11.0142C11.0101 10.3443 11.0071 10.3482 11.0083 10.3521L12.943 17.1628C12.9468 17.176 12.9294 17.1846 12.9212 17.1736L5.40254 7.17503C5.39638 7.16685 5.40222 7.15519 5.41244 7.15519H8.47406C8.47832 7.15519 8.4813 7.15099 8.4799 7.14697L6.98134 2.81643Z" fill="white"/>
</svg>
