<svg width="20" height="20" viewBox="0 0 20 20" fill="none" xmlns="http://www.w3.org/2000/svg">
<path d="M9.9 20C15.3676 20 19.8 15.5676 19.8 10.1C19.8 4.63239 15.3676 0.200012 9.9 0.200012C4.43238 0.200012 0 4.63239 0 10.1C0 15.5676 4.43238 20 9.9 20Z" fill="#EE90E6"/>
<g clip-path="url(#clip0_56_70)">
<path fill-rule="evenodd" clip-rule="evenodd" d="M7.00637 12.9293L8.61031 12.4642L9.99566 14.9972C9.99748 15.0005 10.0022 15.0005 10.004 14.9972L11.3893 12.4642L12.9933 12.9293C12.9969 12.9303 13.0002 12.927 12.9992 12.9234L12.534 11.3512L14.9972 10.004C15.0005 10.0022 15.0005 9.99748 14.9972 9.99568L12.5137 8.6374L12.9992 6.99658C13.0002 6.99299 12.9969 6.98965 12.9933 6.99068L11.3517 7.46668L10.004 5.00246C10.0022 4.99918 9.99748 4.99918 9.99568 5.00246L8.64795 7.46668L7.00637 6.99068C7.00277 6.98965 6.99943 6.99299 7.00051 6.99658L7.48596 8.6374L5.00246 9.99568C4.99918 9.99748 4.99918 10.0022 5.00246 10.004L7.46564 11.3512L7.00051 12.9234C6.99943 12.927 7.00277 12.9303 7.00637 12.9293ZM8.25102 10.0171L9.38732 10.6386L10.0088 11.7749C10.0106 11.7782 10.0153 11.7782 10.0171 11.7749L10.6386 10.6386L11.7749 10.0171C11.7781 10.0153 11.7781 10.0106 11.7749 10.0088L10.6386 9.38732L10.0171 8.25104C10.0153 8.24773 10.0106 8.24773 10.0088 8.25104L9.38732 9.38732L8.25102 10.0088C8.24773 10.0106 8.24773 10.0153 8.25102 10.0171Z" fill="white"/>
</g>
<defs>
<clipPath id="clip0_56_70">
<rect width="10" height="10" fill="white" transform="translate(5 5)"/>
</clipPath>
</defs>
</svg>
