<svg width="20" height="20" viewBox="0 0 20 20" fill="none" xmlns="http://www.w3.org/2000/svg">
<g clip-path="url(#clip0_56_109)">
<path d="M9.9 20C15.3676 20 19.8 15.5676 19.8 10.1C19.8 4.63239 15.3676 0.200012 9.9 0.200012C4.43238 0.200012 0 4.63239 0 10.1C0 15.5676 4.43238 20 9.9 20Z" fill="#D3425F"/>
<path fill-rule="evenodd" clip-rule="evenodd" d="M6.72331 5.83136C6.84433 5.35354 7.27721 5 7.79264 5C8.17926 5 8.51943 5.19892 8.71639 5.5H9.03891C9.23928 5.29437 9.51922 5.16667 9.829 5.16667C10.2832 5.16667 10.6733 5.44118 10.8424 5.83333H11.1124C11.2816 5.72771 11.4815 5.66667 11.6957 5.66667C12.1499 5.66667 12.5399 5.94118 12.709 6.33333H13.4433C13.4496 6.33333 13.4554 6.33502 13.4605 6.33797C13.494 6.3349 13.528 6.33333 13.5623 6.33333C14.1715 6.33333 14.6654 6.82718 14.6654 7.43637V10.7439L14.6654 10.75L14.6654 10.7561V10.8038C14.6654 10.8239 14.6648 10.844 14.6637 10.864C14.5973 13.1585 12.5342 15 9.99869 15C7.42137 15 5.33203 13.0972 5.33203 10.75C5.33203 9.61701 5.81885 8.58756 6.61237 7.82568C6.61039 8.93023 6.62905 10.0721 6.71505 10.0526C6.94533 10.0001 6.76541 6.5789 6.72331 5.83136Z" fill="white"/>
</g>
<defs>
<clipPath id="clip0_56_109">
<rect width="20" height="20" fill="white"/>
</clipPath>
</defs>
</svg>
