<svg width="20" height="20" viewBox="0 0 20 20" fill="none" xmlns="http://www.w3.org/2000/svg">
<path d="M10.0039 19.5374C15.2691 19.5374 19.5374 15.2691 19.5374 10.0039C19.5374 4.7387 15.2691 0.470398 10.0039 0.470398C4.7387 0.470398 0.470398 4.7387 0.470398 10.0039C0.470398 15.2691 4.7387 19.5374 10.0039 19.5374Z" fill="#FF9741"/>
<path d="M14.3113 14.5473C14.3092 14.617 14.2623 14.6644 14.2264 14.7172C13.6488 15.5687 12.8691 16.1408 11.8744 16.4133C11.2014 16.5977 10.5174 16.7262 9.81772 16.6759C8.0505 16.5487 6.58644 15.8474 5.57108 14.3495C5.07402 13.6163 4.82933 12.7901 4.76426 11.9096C4.67574 10.7132 4.92921 9.57556 5.36214 8.46948C5.40651 8.35619 5.45308 8.24369 5.50153 8.13212C5.51424 8.10288 5.51972 8.05231 5.56755 8.06572C5.59554 8.07356 5.58903 8.11339 5.58919 8.14059C5.58966 8.21217 5.58817 8.28383 5.58848 8.35541C5.5917 9.21099 5.66727 10.0571 5.92411 10.8789C6.00965 11.1525 6.11118 11.4202 6.23411 11.6794C6.24846 11.7097 6.26226 11.753 6.30593 11.7389C6.31816 11.735 6.32325 11.6867 6.31996 11.6601C6.27668 11.3042 6.26155 10.9464 6.25355 10.5887C6.22235 9.1961 6.57688 7.93785 7.56088 6.9068C7.83254 6.62221 8.11643 6.34945 8.43795 6.11809C8.69385 5.93393 8.93462 5.73087 9.15179 5.50053C9.56331 5.06407 9.76676 4.54294 9.79397 3.94796C9.81075 3.58058 9.76284 3.21939 9.69346 2.86008C9.68531 2.81797 9.67684 2.77587 9.67119 2.73338C9.66947 2.72044 9.67558 2.69528 9.68029 2.69473C9.69895 2.69253 9.71941 2.6952 9.73728 2.70147C9.74983 2.70594 9.75955 2.71895 9.77006 2.72868C10.3074 3.22934 10.7933 3.77125 11.1321 4.43075C11.4339 5.01829 11.562 5.64126 11.5118 6.30053C11.4958 6.5108 11.4978 6.51331 11.2888 6.57595C10.6693 6.76152 10.234 7.36858 10.2628 8.0491C10.2896 8.68163 10.7162 9.2382 11.3292 9.40449C12.1022 9.61421 12.8905 9.14083 13.1005 8.34279C13.1889 8.00731 13.1566 7.67568 13.0775 7.34475C13.0325 7.15651 12.9713 6.97328 12.9041 6.79187C12.8902 6.75447 12.8498 6.70523 12.8927 6.67575C12.9283 6.65122 12.9712 6.69465 13.007 6.71597C13.8427 7.21233 14.5063 7.87442 14.8776 8.78136C15.526 10.3649 15.3573 11.8731 14.337 13.2502C13.6728 14.1466 12.7516 14.5862 11.6272 14.5716C11.4917 14.5699 11.3563 14.5496 11.2209 14.5363C11.1862 14.5328 11.1418 14.5349 11.1272 14.497C11.1111 14.4552 11.1541 14.438 11.1799 14.4167C11.2242 14.3803 11.2719 14.348 11.314 14.3093C11.914 13.7585 12.1417 13.0764 11.9614 12.2874C11.7842 11.5124 11.2943 10.9996 10.5206 10.789C9.51478 10.5153 8.45473 11.1412 8.16378 12.1756C7.9554 12.9163 8.12647 13.5849 8.61255 14.1642C9.20714 14.8729 9.98244 15.2496 10.9025 15.335C11.7933 15.4178 12.64 15.2317 13.4636 14.9145C13.7503 14.8041 14.0272 14.6682 14.3086 14.544L14.3113 14.5473Z" fill="#FEFEFE"/>
</svg>
