<svg width="20" height="20" viewBox="0 0 20 20" fill="none" xmlns="http://www.w3.org/2000/svg">
<path d="M9.9 20C15.3676 20 19.8 15.5676 19.8 10.1C19.8 4.63239 15.3676 0.200012 9.9 0.200012C4.43238 0.200012 0 4.63239 0 10.1C0 15.5676 4.43238 20 9.9 20Z" fill="#A1BBEC"/>
<path fill-rule="evenodd" clip-rule="evenodd" d="M8.49047 14.3307C9.95537 14.3307 11.2095 13.5166 11.7273 12.3624C11.7336 12.3483 9.64857 12.9043 9.71506 12.7078C9.74475 12.62 11.0229 12.1531 11.9541 11.6085C12.4893 11.2954 12.7357 10.6328 12.7357 10.6328C12.7357 10.6328 11.834 11.0706 11.3782 11.1817C10.4596 11.4055 9.651 11.3814 9.651 11.3581C9.651 11.3076 10.9937 11.0525 12.8598 9.91531C13.7376 9.38041 13.9761 8.45904 13.9761 8.45904C13.9761 8.45904 13.011 9.03389 12.4276 9.22367C11.0441 9.67373 9.78154 9.80936 9.78154 9.74846C9.78154 9.61807 10.8926 9.31254 12.0706 8.74174C12.6831 8.44496 13.2136 8.05723 13.8283 7.62604C14.8341 6.92055 15 5.66406 15 5.66406C15 5.66406 14.0079 6.30391 13.5238 6.51639C11.5262 7.39318 9.76229 7.85311 8.49047 7.95268C6.57063 8.10299 5 9.4425 5 11.1817C5 12.9208 6.56273 14.3307 8.49047 14.3307Z" fill="white"/>
</svg>
