<svg width="20" height="20" viewBox="0 0 20 20" fill="none" xmlns="http://www.w3.org/2000/svg">
<path d="M9.9 20C15.3676 20 19.8 15.5676 19.8 10.1C19.8 4.63239 15.3676 0.200012 9.9 0.200012C4.43238 0.200012 0 4.63239 0 10.1C0 15.5676 4.43238 20 9.9 20Z" fill="#5F6DBC"/>
<path fill-rule="evenodd" clip-rule="evenodd" d="M12.2061 14.9654C11.3041 15.0115 10.2714 15.0115 9.92047 14.9654C7.18301 14.6052 5 12.6038 5 9.89844C5 7.19311 7.23857 5 10 5C12.7614 5 15 7.19311 15 9.89844C15 11.1567 14.5158 12.3041 13.7199 13.1716C13.5038 13.4072 13.8003 13.5724 14.1016 13.7403C14.3971 13.905 14.6971 14.0722 14.5227 14.3108C14.3306 14.5737 13.2889 14.9099 12.2061 14.9654ZM9.29688 9.28613C9.29688 9.70883 8.94709 10.0515 8.51562 10.0515C8.08416 10.0515 7.73438 9.70883 7.73438 9.28613C7.73438 9.00264 7.8917 8.75516 8.12547 8.62287C8.13893 8.99145 8.44197 9.28611 8.81385 9.28611H9.29688V9.28613ZM11.7183 8.62287C11.7048 8.99145 11.4018 9.28611 11.0299 9.28611H10.5469V9.28613C10.5469 9.70883 10.8967 10.0515 11.3281 10.0515C11.7596 10.0515 12.1094 9.70883 12.1094 9.28613C12.1094 9.00264 11.9521 8.75516 11.7183 8.62287Z" fill="white"/>
</svg>
