<svg width="20" height="20" viewBox="0 0 20 20" fill="none" xmlns="http://www.w3.org/2000/svg">
<path d="M9.9 20C15.3676 20 19.8 15.5676 19.8 10.1C19.8 4.63239 15.3676 0.200012 9.9 0.200012C4.43238 0.200012 0 4.63239 0 10.1C0 15.5676 4.43238 20 9.9 20Z" fill="#5FBD58"/>
<path fill-rule="evenodd" clip-rule="evenodd" d="M5.12623 15.1165C5.07999 15.073 5.03427 15.0286 4.98909 14.9835C2.60365 12.598 2.60365 8.73045 4.98909 6.34503C7.37453 3.95957 14.9755 3.79999 14.9755 3.79999C14.9755 3.79999 16.013 12.598 13.6276 14.9835C11.509 17.1021 8.22133 17.3391 5.84119 15.6945L7.75903 13.341L10.8249 12.6791L8.32223 12.4289L9.91269 10.8095L11.7231 10.4129L10.2915 9.98897L11.7231 7.40645L9.68683 9.69045L8.90049 8.58083L9.17731 10.4129L7.75903 12.0118L7.10159 9.98893V12.6791L5.12623 15.1165Z" fill="white"/>
</svg>
