<svg width="20" height="20" viewBox="0 0 20 20" fill="none" xmlns="http://www.w3.org/2000/svg">
<path d="M9.9 20C15.3676 20 19.8 15.5676 19.8 10.1C19.8 4.63239 15.3676 0.200012 9.9 0.200012C4.43238 0.200012 0 4.63239 0 10.1C0 15.5676 4.43238 20 9.9 20Z" fill="#DA7C4D"/>
<g clip-path="url(#clip0_58_131)">
<path fill-rule="evenodd" clip-rule="evenodd" d="M7.20242 13.5889C7.19971 13.5889 7.19781 13.5863 7.19871 13.5837L9.75174 6.3698C9.7523 6.36824 9.75379 6.36719 9.75545 6.36719H12.4809C12.4825 6.36719 12.484 6.36824 12.4846 6.36982L14.9997 13.5837C15.0006 13.5863 14.9987 13.5889 14.996 13.5889H7.27914H7.20242ZM5.00393 13.6172C5.00119 13.6172 4.99929 13.6144 5.00025 13.6119L6.90142 8.53625C6.90199 8.53471 6.90346 8.53369 6.9051 8.53369H8.55699C8.55973 8.53369 8.56162 8.53641 8.56068 8.53897L6.72231 13.6146C6.72175 13.6161 6.72027 13.6172 6.71862 13.6172H5.00393Z" fill="white"/>
</g>
<defs>
<clipPath id="clip0_58_131">
<rect width="10" height="10" fill="white" transform="translate(5 5)"/>
</clipPath>
</defs>
</svg>
