<svg width="20" height="20" viewBox="0 0 20 20" fill="none" xmlns="http://www.w3.org/2000/svg">
<path d="M9.9 20C15.3676 20 19.8 15.5676 19.8 10.1C19.8 4.63239 15.3676 0.200012 9.9 0.200012C4.43238 0.200012 0 4.63239 0 10.1C0 15.5676 4.43238 20 9.9 20Z" fill="#75D0C1"/>
<path fill-rule="evenodd" clip-rule="evenodd" d="M13.5083 4.06757L13.5514 7.85058L10.2518 9.43452L10.2111 5.86263L13.5083 4.06757Z" fill="white"/>
<path fill-rule="evenodd" clip-rule="evenodd" d="M16.8159 10.0286L13.5496 11.897L10.2813 10.0257L13.5479 8.30981L16.8159 10.0286Z" fill="white"/>
<path fill-rule="evenodd" clip-rule="evenodd" d="M9.70029 10.0286L6.43395 11.897L3.16565 10.0257L6.43225 8.30981L9.70029 10.0286Z" fill="white"/>
<path fill-rule="evenodd" clip-rule="evenodd" d="M6.39728 4.05206L9.78752 5.73113L9.70084 9.39016L6.49982 7.80482L6.39728 4.05206Z" fill="white"/>
<path fill-rule="evenodd" clip-rule="evenodd" d="M13.6006 15.9479L10.2103 14.2689L10.297 10.6098L13.498 12.1952L13.6006 15.9479Z" fill="white"/>
<path fill-rule="evenodd" clip-rule="evenodd" d="M6.51435 15.982L6.47125 12.199L9.77085 10.6151L9.81154 14.1869L6.51435 15.982Z" fill="white"/>
</svg>
