<svg width="20" height="20" viewBox="0 0 20 20" fill="none" xmlns="http://www.w3.org/2000/svg">
<path d="M9.99413 19.8941C15.4617 19.8941 19.8941 15.4617 19.8941 9.99406C19.8941 4.52644 15.4617 0.0940552 9.99413 0.0940552C4.5265 0.0940552 0.0941162 4.52644 0.0941162 9.99406C0.0941162 15.4617 4.5265 19.8941 9.99413 19.8941Z" fill="#A0A29F"/>
<path fill-rule="evenodd" clip-rule="evenodd" d="M17.8 10.1C17.8 14.4631 14.263 18 9.9 18C5.53696 18 2 14.4631 2 10.1C2 5.73697 5.53696 2.20001 9.9 2.20001C14.263 2.20001 17.8 5.73697 17.8 10.1ZM14.4143 10.1C14.4143 12.5932 12.3932 14.6143 9.9 14.6143C7.40684 14.6143 5.38572 12.5932 5.38572 10.1C5.38572 7.60685 7.40684 5.58573 9.9 5.58573C12.3932 5.58573 14.4143 7.60685 14.4143 10.1Z" fill="white"/>
</svg>
