<svg width="20" height="20" viewBox="0 0 20 20" fill="none" xmlns="http://www.w3.org/2000/svg">
<path d="M9.9 20C15.3676 20 19.8 15.5676 19.8 10.1C19.8 4.63239 15.3676 0.200012 9.9 0.200012C4.43238 0.200012 0 4.63239 0 10.1C0 15.5676 4.43238 20 9.9 20Z" fill="#B763CF"/>
<path fill-rule="evenodd" clip-rule="evenodd" d="M13.3559 12.6846C14.3657 11.8771 15 10.7105 15 9.41309C15 6.9758 12.7614 5 10 5C7.23857 5 5 6.9758 5 9.41309C5 10.6636 5.58933 11.7927 6.53624 12.5957C6.47885 12.7939 6.44737 13.0094 6.44737 13.2348C6.44737 14.2097 7.03646 15 7.76316 15C8.23535 15 8.64945 14.6663 8.88158 14.1651C9.11371 14.6663 9.52781 15 10 15C10.4304 15 10.8126 14.7227 11.0526 14.2941C11.2927 14.7227 11.6748 15 12.1053 15C12.832 15 13.4211 14.2097 13.4211 13.2348C13.4211 13.0427 13.3982 12.8577 13.3559 12.6846ZM12.8947 9.50061C12.8947 10.738 11.5693 11.7411 9.93422 11.7411C8.29916 11.7411 6.97369 10.738 6.97369 9.50061C6.97369 8.26322 8.29916 7.26012 9.93422 7.26012C11.5693 7.26012 12.8947 8.26322 12.8947 9.50061Z" fill="white"/>
</svg>
