<svg width="20" height="20" viewBox="0 0 20 20" fill="none" xmlns="http://www.w3.org/2000/svg">
<path d="M9.9 20C15.3676 20 19.8 15.5676 19.8 10.1C19.8 4.63239 15.3676 0.200012 9.9 0.200012C4.43238 0.200012 0 4.63239 0 10.1C0 15.5676 4.43238 20 9.9 20Z" fill="#FA8581"/>
<g clip-path="url(#clip0_58_155)">
<path fill-rule="evenodd" clip-rule="evenodd" d="M13.9048 13.3044C13.9048 13.3044 12.6438 14.3157 10.1346 13.8972C8.23092 13.5797 7.21557 11.4811 7.21557 10.3531C7.21557 7.67869 9.19498 7.07008 10.5332 7.07008C11.8714 7.07008 12.7444 8.37477 12.7444 9.38492C12.7444 10.3951 12.0299 11.2786 10.9181 11.2786C9.80625 11.2786 9.47695 10.4981 9.47695 9.78043C9.47695 9.06281 10.0576 8.80998 10.5871 8.80998C11.1166 8.80998 11.2979 9.26205 11.2979 9.65059C11.2979 10.0391 10.9964 10.1783 10.745 10.1783C10.4935 10.1783 10.4687 10.0514 10.3724 9.91811C10.2762 9.78481 10.4952 9.2802 10.1346 9.2802C9.77408 9.2802 9.70687 9.86029 9.70687 9.86029C9.70687 9.86029 9.83832 10.9801 10.9181 10.9608C11.9979 10.9414 12.5101 10.1067 12.3612 9.2802C12.2124 8.45371 11.4103 7.57549 10.0026 7.75295C8.5949 7.93041 8.02016 9.35275 8.2735 10.8728C8.52684 12.3928 10.3478 13.2735 11.7795 12.9566C13.2113 12.6398 14.6373 11.6032 14.6373 8.97525C14.6373 6.34724 12.3612 4.76757 9.64728 5.02791C6.93332 5.28825 5.24861 7.66098 5.35645 10.5119C5.46428 13.3627 8.16943 14.9154 10.4569 14.9954C12.7444 15.0755 14.1467 13.7513 14.1467 13.7513C14.1467 13.7513 14.4621 13.4701 14.3384 13.2505C14.2148 13.0309 13.9048 13.3044 13.9048 13.3044Z" fill="white"/>
</g>
<defs>
<clipPath id="clip0_58_155">
<rect width="10" height="10" fill="white" transform="translate(5 5)"/>
</clipPath>
</defs>
</svg>
