<svg width="20" height="20" viewBox="0 0 20 20" fill="none" xmlns="http://www.w3.org/2000/svg">
<path d="M9.9 20C15.3676 20 19.8 15.5676 19.8 10.1C19.8 4.63239 15.3676 0.200012 9.9 0.200012C4.43238 0.200012 0 4.63239 0 10.1C0 15.5676 4.43238 20 9.9 20Z" fill="#C9BB8A"/>
<g clip-path="url(#clip0_62_181)">
<path fill-rule="evenodd" clip-rule="evenodd" d="M12.7175 9.78041C12.717 9.77963 12.7167 9.77865 12.7169 9.7777L13.3549 6.05765C13.3552 6.05594 13.3567 6.05469 13.3584 6.05469H13.5603C13.5619 6.05469 13.5632 6.0557 13.5637 6.05718L15.001 10.608C15.0014 10.6094 15.001 10.611 14.9998 10.6119L13.94 11.4393C13.9385 11.4405 13.9362 11.4402 13.935 11.4386L12.7175 9.78041ZM4.98047 12.2465C4.98047 12.2481 4.98146 12.2494 4.98293 12.2499L7.16748 12.9642C7.16854 12.9646 7.16971 12.9644 7.17062 12.9637L12.0536 9.59266C12.0544 9.59209 12.055 9.59121 12.0551 9.59023L12.5788 6.07673C12.5791 6.07457 12.5774 6.07263 12.5752 6.07263H8.25012C8.24904 6.07263 8.24805 6.07311 8.24736 6.07392L4.98129 10.0139C4.98076 10.0146 4.98047 10.0154 4.98047 10.0162V12.2465ZM8.07779 13.1462L10.4644 13.928C10.4654 13.9283 10.4666 13.9281 10.4676 13.9275L13.3089 11.8893C13.3105 11.8882 13.3109 11.8861 13.3098 11.8845L12.2447 10.2994C12.2436 10.2977 12.2413 10.2973 12.2397 10.2984L8.07779 13.1462Z" fill="white"/>
</g>
<defs>
<clipPath id="clip0_62_181">
<rect width="10" height="10" fill="white" transform="translate(5 5)"/>
</clipPath>
</defs>
</svg>
