<svg width="20" height="20" viewBox="0 0 20 20" fill="none" xmlns="http://www.w3.org/2000/svg">
<path d="M9.9 20C15.3676 20 19.8 15.5676 19.8 10.1C19.8 4.63239 15.3676 0.200012 9.9 0.200012C4.43238 0.200012 0 4.63239 0 10.1C0 15.5676 4.43238 20 9.9 20Z" fill="#5695A3"/>
<path fill-rule="evenodd" clip-rule="evenodd" d="M5.001 9.97123C4.99967 9.96896 4.99967 9.96615 5.001 9.96387L7.51553 5.66766C7.51684 5.66543 7.51924 5.66406 7.52182 5.66406H12.5057C12.5083 5.66406 12.5107 5.66545 12.5121 5.66769L14.999 9.96391C15.0003 9.96615 15.0003 9.96895 14.999 9.97119L12.5121 14.2626C12.5107 14.2648 12.5083 14.2662 12.5057 14.2662H7.52182C7.51924 14.2662 7.51684 14.2648 7.51553 14.2626L5.001 9.97123ZM12.3167 9.96514C12.3167 11.2442 11.2798 12.2811 10.0008 12.2811C8.72172 12.2811 7.68482 11.2442 7.68482 9.96514C7.68482 8.68605 8.72172 7.64918 10.0008 7.64918C11.2798 7.64918 12.3167 8.68605 12.3167 9.96514Z" fill="white"/>
</svg>
