<svg width="20" height="20" viewBox="0 0 20 20" fill="none" xmlns="http://www.w3.org/2000/svg">
<path d="M9.99413 19.8941C15.4617 19.8941 19.8941 15.4617 19.8941 9.99406C19.8941 4.52644 15.4617 0.0940552 9.99413 0.0940552C4.5265 0.0940552 0.0941162 4.52644 0.0941162 9.99406C0.0941162 15.4617 4.5265 19.8941 9.99413 19.8941Z" fill="#539DDF"/>
<path fill-rule="evenodd" clip-rule="evenodd" d="M15.396 12.8535C15.396 15.7685 13.024 18.1316 10.098 18.1316C7.17197 18.1316 4.79999 15.7685 4.79999 12.8535C4.79999 10.0184 9.81141 2.23215 10.0862 1.80725C10.0925 1.79757 10.1035 1.79757 10.1097 1.80726C10.3846 2.23215 15.396 10.0184 15.396 12.8535ZM9.21483 16.4395C6.52637 15.8513 6.98643 12.8731 6.98643 12.8731C6.98643 12.8731 7.72055 14.6709 9.50209 15.2533C11.2836 15.8356 13.4365 14.9815 13.4365 14.9815C13.4365 14.9815 11.9033 17.0277 9.21483 16.4395Z" fill="white"/>
</svg>
