<svg width="1024" height="1024" viewBox="0 0 1024 1024" fill="none" xmlns="http://www.w3.org/2000/svg">
<mask id="path-1-inside-1_420_2" fill="white">
<path d="M904 512.5C904 616.332 862.753 715.912 789.332 789.332C715.912 862.753 616.332 904 512.5 904C408.668 904 309.088 862.753 235.668 789.332C162.247 715.912 121 616.332 121 512.5L512.5 512.5H904Z"/>
</mask>
<path d="M904 512.5C904 616.332 862.753 715.912 789.332 789.332C715.912 862.753 616.332 904 512.5 904C408.668 904 309.088 862.753 235.668 789.332C162.247 715.912 121 616.332 121 512.5L512.5 512.5H904Z" fill="#FDFDFD" stroke="black" stroke-width="60" mask="url(#path-1-inside-1_420_2)"/>
<mask id="path-2-inside-2_420_2" fill="white">
<path d="M121 512.5C121 408.668 162.247 309.088 235.668 235.668C309.088 162.247 408.668 121 512.5 121C616.332 121 715.912 162.247 789.332 235.668C862.753 309.088 904 408.668 904 512.5L512.5 512.5L121 512.5Z"/>
</mask>
<path d="M121 512.5C121 408.668 162.247 309.088 235.668 235.668C309.088 162.247 408.668 121 512.5 121C616.332 121 715.912 162.247 789.332 235.668C862.753 309.088 904 408.668 904 512.5L512.5 512.5L121 512.5Z" fill="#EC1B23" stroke="black" stroke-width="60" mask="url(#path-2-inside-2_420_2)"/>
<path d="M555 512C555 535.871 535.85 555 512.5 555C489.15 555 470 535.871 470 512C470 488.129 489.15 469 512.5 469C535.85 469 555 488.129 555 512Z" fill="#FDFDFD" stroke="black" stroke-width="30"/>
<path d="M798.4 533.413L347.303 805.228C323.352 819.66 297.384 789.877 314.945 768.115L493.748 546.54C510.012 526.385 510.012 497.615 493.748 477.46L314.945 255.885C297.384 234.123 323.352 204.34 347.303 218.772L798.4 490.587C814.53 500.306 814.53 523.694 798.4 533.413Z" fill="white" stroke="black" stroke-width="30"/>
</svg>
