<svg width="1024" height="1024" viewBox="0 0 1024 1024" fill="none" xmlns="http://www.w3.org/2000/svg">
<g clip-path="url(#clip0_368_2)">
<mask id="path-1-inside-1_368_2" fill="white">
<path d="M1025 511.5C1025 647.158 971.11 777.26 875.185 873.185C779.26 969.11 649.158 1023 513.5 1023C377.842 1023 247.74 969.11 151.815 873.185C55.8901 777.26 2.00002 647.158 2 511.5L513.5 511.5H1025Z"/>
</mask>
<path d="M1025 511.5C1025 647.158 971.11 777.26 875.185 873.185C779.26 969.11 649.158 1023 513.5 1023C377.842 1023 247.74 969.11 151.815 873.185C55.8901 777.26 2.00002 647.158 2 511.5L513.5 511.5H1025Z" fill="#FDFDFD" stroke="black" stroke-width="60" mask="url(#path-1-inside-1_368_2)"/>
<mask id="path-2-inside-2_368_2" fill="white">
<path d="M2 512.5C2.00001 376.842 55.89 246.74 151.815 150.815C247.74 54.89 377.842 1.00001 513.5 1C649.158 0.999985 779.26 54.89 875.185 150.815C971.11 246.74 1025 376.842 1025 512.5L513.5 512.5L2 512.5Z"/>
</mask>
<path d="M2 512.5C2.00001 376.842 55.89 246.74 151.815 150.815C247.74 54.89 377.842 1.00001 513.5 1C649.158 0.999985 779.26 54.89 875.185 150.815C971.11 246.74 1025 376.842 1025 512.5L513.5 512.5L2 512.5Z" fill="#EC1B23" stroke="black" stroke-width="60" mask="url(#path-2-inside-2_368_2)"/>
<circle cx="513.5" cy="511.5" r="60.5" fill="#FDFDFD" stroke="black" stroke-width="30"/>
<path d="M464.256 622.818V619.835C464.587 588.183 467.902 562.993 474.199 544.267C480.496 525.541 489.445 510.377 501.045 498.777C512.646 487.177 526.566 476.488 542.807 466.71C552.584 460.744 561.367 453.701 569.156 445.581C576.945 437.295 583.077 427.766 587.551 416.994C592.191 406.223 594.511 394.291 594.511 381.199C594.511 364.958 590.7 350.872 583.077 338.94C575.454 327.009 565.262 317.811 552.501 311.348C539.741 304.885 525.572 301.653 509.994 301.653C496.405 301.653 483.313 304.471 470.719 310.105C458.124 315.74 447.601 324.606 439.149 336.703C430.697 348.801 425.809 364.627 424.483 384.182H361.841C363.167 356.009 370.458 331.897 383.716 311.845C397.139 291.793 414.788 276.464 436.663 265.858C458.704 255.252 483.148 249.949 509.994 249.949C539.161 249.949 564.516 255.749 586.06 267.349C607.769 278.95 624.507 294.859 636.273 315.077C648.205 335.294 654.17 358.33 654.17 384.182C654.17 402.411 651.353 418.9 645.719 433.649C640.25 448.398 632.295 461.573 621.855 473.173C611.581 484.774 599.152 495.048 584.568 503.997C569.985 513.112 558.302 522.723 549.518 532.832C540.735 542.776 534.355 554.625 530.378 568.379C526.401 582.134 524.246 599.286 523.915 619.835V622.818H464.256ZM496.074 769.977C483.811 769.977 473.287 765.586 464.504 756.803C455.721 748.019 451.33 737.496 451.33 725.233C451.33 712.97 455.721 702.446 464.504 693.663C473.287 684.88 483.811 680.489 496.074 680.489C508.337 680.489 518.86 684.88 527.643 693.663C536.427 702.446 540.818 712.97 540.818 725.233C540.818 733.353 538.747 740.811 534.604 747.605C530.626 754.4 525.241 759.868 518.446 764.011C511.817 767.989 504.36 769.977 496.074 769.977Z" fill="#FDFDFD"/>
<path d="M464.256 622.818H444.256V642.818H464.256V622.818ZM464.256 619.835L444.257 619.626L444.256 619.731V619.835H464.256ZM474.199 544.267L455.242 537.892L455.242 537.892L474.199 544.267ZM501.045 498.777L515.188 512.919L515.188 512.919L501.045 498.777ZM542.807 466.71L553.122 483.845L553.173 483.814L553.224 483.783L542.807 466.71ZM569.156 445.581L583.59 459.425L583.66 459.353L583.729 459.279L569.156 445.581ZM587.551 416.994L569.183 409.082L569.131 409.202L569.081 409.322L587.551 416.994ZM470.719 310.105L462.551 291.849L462.551 291.849L470.719 310.105ZM439.149 336.703L455.544 348.157L455.544 348.157L439.149 336.703ZM424.483 384.182V404.182H443.173L444.437 385.535L424.483 384.182ZM361.841 384.182L341.863 383.242L340.878 404.182H361.841V384.182ZM383.716 311.845L367.096 300.719L367.064 300.767L367.033 300.815L383.716 311.845ZM436.663 265.858L427.991 247.836L427.964 247.849L427.938 247.862L436.663 265.858ZM586.06 267.349L576.578 284.959L576.606 284.974L576.634 284.989L586.06 267.349ZM636.273 315.077L618.987 325.136L619.018 325.189L619.049 325.242L636.273 315.077ZM645.719 433.649L627.036 426.512L627.001 426.604L626.966 426.696L645.719 433.649ZM621.855 473.173L606.989 459.794L606.936 459.853L606.883 459.913L621.855 473.173ZM584.568 503.997L574.108 486.951L574.038 486.994L573.968 487.037L584.568 503.997ZM549.518 532.832L564.508 546.073L564.562 546.012L564.616 545.95L549.518 532.832ZM523.915 619.835L503.917 619.513L503.915 619.674V619.835H523.915ZM523.915 622.818V642.818H543.915V622.818H523.915ZM464.504 756.803L478.646 742.66L478.646 742.66L464.504 756.803ZM464.504 693.663L478.646 707.805L478.646 707.805L464.504 693.663ZM534.604 747.605L517.528 737.193L517.434 737.346L517.343 737.502L534.604 747.605ZM518.446 764.011L528.736 781.161L528.797 781.124L528.858 781.087L518.446 764.011ZM484.256 622.818V619.835H444.256V622.818H484.256ZM484.255 620.045C484.576 589.387 487.805 566.552 493.156 550.642L455.242 537.892C447.998 559.435 444.599 586.979 444.257 619.626L484.255 620.045ZM493.156 550.642C498.668 534.251 506.172 521.935 515.188 512.919L486.903 484.635C472.719 498.82 462.325 516.831 455.242 537.892L493.156 550.642ZM515.188 512.919C525.477 502.63 538.064 492.911 553.122 483.845L532.491 449.576C515.069 460.065 499.815 471.724 486.903 484.635L515.188 512.919ZM553.224 483.783C564.447 476.935 574.586 468.813 583.59 459.425L554.723 431.736C548.149 438.59 540.721 444.554 532.39 449.637L553.224 483.783ZM583.729 459.279C593.212 449.191 600.646 437.607 606.021 424.666L569.081 409.322C565.508 417.925 560.678 425.399 554.584 431.883L583.729 459.279ZM605.919 424.907C611.755 411.361 614.511 396.695 614.511 381.199H574.511C574.511 391.887 572.628 401.085 569.183 409.082L605.919 424.907ZM614.511 381.199C614.511 361.717 609.897 343.772 599.931 328.173L566.223 349.708C571.503 357.972 574.511 368.2 574.511 381.199H614.511ZM599.931 328.173C590.361 313.194 577.456 301.568 561.538 293.506L543.465 329.19C553.068 334.054 560.546 340.823 566.223 349.708L599.931 328.173ZM561.538 293.506C545.733 285.501 528.427 281.653 509.994 281.653V321.653C522.717 321.653 533.749 324.269 543.465 329.19L561.538 293.506ZM509.994 281.653C493.546 281.653 477.675 285.083 462.551 291.849L478.886 328.361C488.952 323.858 499.264 321.653 509.994 321.653V281.653ZM462.551 291.849C446.417 299.067 433.131 310.395 422.754 325.249L455.544 348.157C462.07 338.816 469.831 332.412 478.886 328.361L462.551 291.849ZM422.754 325.249C411.643 341.153 406.022 360.803 404.529 382.829L444.437 385.535C445.595 368.451 449.752 356.448 455.544 348.157L422.754 325.249ZM424.483 364.182H361.841V404.182H424.483V364.182ZM381.819 385.122C383.005 359.918 389.45 339.436 400.399 322.875L367.033 300.815C351.467 324.358 343.328 352.101 341.863 383.242L381.819 385.122ZM400.336 322.971C411.769 305.892 426.683 292.924 445.389 283.854L427.938 247.862C402.893 260.004 382.51 277.694 367.096 300.719L400.336 322.971ZM445.336 283.88C464.415 274.699 485.853 269.949 509.994 269.949V229.949C480.442 229.949 452.993 235.805 427.991 247.836L445.336 283.88ZM509.994 269.949C536.485 269.949 558.46 275.203 576.578 284.959L595.542 249.74C570.573 236.295 541.837 229.949 509.994 229.949V269.949ZM576.634 284.989C595.25 294.936 609.186 308.296 618.987 325.136L653.559 305.017C639.827 281.421 620.288 262.963 595.485 249.71L576.634 284.989ZM619.049 325.242C628.983 342.075 634.17 361.533 634.17 384.182H674.17C674.17 355.126 667.426 328.514 653.497 304.912L619.049 325.242ZM634.17 384.182C634.17 400.343 631.676 414.365 627.036 426.512L664.402 440.787C671.03 423.435 674.17 404.479 674.17 384.182H634.17ZM626.966 426.696C622.369 439.096 615.726 450.086 606.989 459.794L636.721 486.553C648.865 473.06 658.131 457.7 664.471 440.602L626.966 426.696ZM606.883 459.913C598.046 469.89 587.182 478.928 574.108 486.951L595.029 521.044C611.121 511.169 625.115 499.657 636.827 486.434L606.883 459.913ZM573.968 487.037C558.155 496.92 544.813 507.754 534.421 519.715L564.616 545.95C571.79 537.693 581.814 529.303 595.168 520.957L573.968 487.037ZM534.529 519.592C523.635 531.925 515.898 546.455 511.165 562.824L549.591 573.935C552.812 562.794 557.836 553.626 564.508 546.073L534.529 519.592ZM511.165 562.824C506.533 578.842 504.266 597.891 503.917 619.513L543.912 620.158C544.226 600.681 546.268 585.426 549.591 573.935L511.165 562.824ZM503.915 619.835V622.818H543.915V619.835H503.915ZM523.915 602.818H464.256V642.818H523.915V602.818ZM496.074 749.977C489.191 749.977 483.733 747.747 478.646 742.66L450.362 770.945C462.842 783.424 478.43 789.977 496.074 789.977V749.977ZM478.646 742.66C473.56 737.574 471.33 732.116 471.33 725.233H431.33C431.33 742.877 437.883 758.465 450.362 770.945L478.646 742.66ZM471.33 725.233C471.33 718.35 473.56 712.892 478.646 707.805L450.362 679.521C437.883 692.001 431.33 707.589 431.33 725.233H471.33ZM478.646 707.805C483.733 702.719 489.191 700.489 496.074 700.489V660.489C478.43 660.489 462.842 667.042 450.362 679.521L478.646 707.805ZM496.074 700.489C502.957 700.489 508.415 702.719 513.501 707.805L541.786 679.521C529.306 667.042 513.718 660.489 496.074 660.489V700.489ZM513.501 707.805C518.588 712.892 520.818 718.35 520.818 725.233H560.818C560.818 707.589 554.265 692.001 541.786 679.521L513.501 707.805ZM520.818 725.233C520.818 729.759 519.718 733.601 517.528 737.193L551.68 758.017C557.776 748.02 560.818 736.948 560.818 725.233H520.818ZM517.343 737.502C515.056 741.409 512.036 744.495 508.034 746.935L528.858 781.087C538.445 775.242 546.197 767.39 551.864 757.709L517.343 737.502ZM508.156 746.862C504.86 748.839 501.005 749.977 496.074 749.977V789.977C507.714 789.977 518.775 787.138 528.736 781.161L508.156 746.862Z" fill="black"/>
</g>
<defs>
<clipPath id="clip0_368_2">
<rect width="1024" height="1024" fill="white"/>
</clipPath>
</defs>
</svg>
