<svg class="menu__icon" viewBox="0 0 907 856" fill="none" xmlns="http://www.w3.org/2000/svg">
									<path
										d="M468.822 16.4386L468.832 16.4478L880.729 428.045C880.73 428.046 880.731 428.047 880.732 428.048C901.826 449.145 901.825 483.322 880.815 504.417L880.807 504.425L880.8 504.432C870.701 514.616 856.967 520.274 842.6 520.274H799.2H789.2V530.274V823.974C789.2 836.151 779.377 845.974 767.2 845.974H511.3V631.974V621.974H501.3H389.3H379.3V631.974V845.974H139.4C127.223 845.974 117.4 836.151 117.4 823.974V530.274V520.274H107.4H64C34.2228 520.274 10 496.051 10 466.274C10 451.943 15.7345 438.182 25.8711 428.045L437.768 16.4478L437.778 16.4386C439.816 14.397 442.234 12.7779 444.897 11.6734C447.561 10.5687 450.417 10 453.3 10C456.183 10 459.039 10.5687 461.703 11.6734C464.366 12.7779 466.784 14.397 468.822 16.4386Z"
										fill="white"
										stroke="black"
										stroke-width="20"
									/>
									<path
										d="M436.642 26.2562C446.257 16.5812 461.743 16.5813 471.357 26.2563L875.639 433.112C891.298 448.87 880.318 476 858.281 476H49.7185C27.682 476 16.7023 448.87 32.3612 433.112L436.642 26.2562Z"
										fill="#EC1B23"
									/>
									<path
										d="M830.661 366H76.3392C34.1782 366 0 407.861 0 459.5C0 511.139 34.1782 553 76.3392 553H830.661C872.822 553 907 511.139 907 459.5C907 407.861 872.822 366 830.661 366Z"
										fill="black"
									/>
									<path
										d="M453 553C503.81 553 545 511.81 545 461C545 410.19 503.81 369 453 369C402.19 369 361 410.19 361 461C361 511.81 402.19 553 453 553Z"
										fill="white"
										stroke="black"
										stroke-width="60"
									/>
								</svg>