<svg width="1024" height="1024" viewBox="0 0 1024 1024" fill="none" xmlns="http://www.w3.org/2000/svg">
<rect x="552.088" y="638.372" width="80" height="380" rx="40" transform="rotate(-50 552.088 638.372)" fill="#FDFDFD" stroke="black" stroke-width="20"/>
<rect x="194" y="403" width="443" height="50" fill="black"/>
<mask id="path-3-inside-1_417_2" fill="white">
<path d="M716 428C716 348.435 684.393 272.129 628.132 215.868C571.871 159.607 495.565 128 416 128C336.435 128 260.129 159.607 203.868 215.868C147.607 272.129 116 348.435 116 428L236 428C236 380.261 254.964 334.477 288.721 300.721C322.477 266.964 368.261 248 416 248C463.739 248 509.523 266.964 543.279 300.721C577.036 334.477 596 380.261 596 428H716Z"/>
</mask>
<path d="M716 428C716 348.435 684.393 272.129 628.132 215.868C571.871 159.607 495.565 128 416 128C336.435 128 260.129 159.607 203.868 215.868C147.607 272.129 116 348.435 116 428L236 428C236 380.261 254.964 334.477 288.721 300.721C322.477 266.964 368.261 248 416 248C463.739 248 509.523 266.964 543.279 300.721C577.036 334.477 596 380.261 596 428H716Z" fill="#EC1B23" stroke="black" stroke-width="40" mask="url(#path-3-inside-1_417_2)"/>
<mask id="path-4-inside-2_417_2" fill="white">
<path d="M716 428C716 467.397 708.24 506.407 693.164 542.805C678.087 579.203 655.99 612.274 628.132 640.132C600.274 667.99 567.203 690.087 530.805 705.164C494.407 720.24 455.397 728 416 728C376.603 728 337.593 720.24 301.195 705.164C264.797 690.087 231.726 667.99 203.868 640.132C176.01 612.274 153.913 579.203 138.836 542.805C123.76 506.407 116 467.397 116 428L236 428C236 451.638 240.656 475.044 249.702 496.883C258.748 518.722 272.006 538.565 288.721 555.279C305.435 571.994 325.278 585.252 347.117 594.298C368.956 603.344 392.362 608 416 608C439.638 608 463.044 603.344 484.883 594.298C506.722 585.252 526.565 571.994 543.279 555.279C559.994 538.565 573.252 518.722 582.298 496.883C591.344 475.044 596 451.638 596 428H716Z"/>
</mask>
<path d="M716 428C716 467.397 708.24 506.407 693.164 542.805C678.087 579.203 655.99 612.274 628.132 640.132C600.274 667.99 567.203 690.087 530.805 705.164C494.407 720.24 455.397 728 416 728C376.603 728 337.593 720.24 301.195 705.164C264.797 690.087 231.726 667.99 203.868 640.132C176.01 612.274 153.913 579.203 138.836 542.805C123.76 506.407 116 467.397 116 428L236 428C236 451.638 240.656 475.044 249.702 496.883C258.748 518.722 272.006 538.565 288.721 555.279C305.435 571.994 325.278 585.252 347.117 594.298C368.956 603.344 392.362 608 416 608C439.638 608 463.044 603.344 484.883 594.298C506.722 585.252 526.565 571.994 543.279 555.279C559.994 538.565 573.252 518.722 582.298 496.883C591.344 475.044 596 451.638 596 428H716Z" fill="#FDFDFD" stroke="black" stroke-width="40" mask="url(#path-4-inside-2_417_2)"/>
<circle cx="416" cy="428" r="40" fill="#FDFDFD" stroke="black" stroke-width="20"/>
</svg>
