<svg width="1024" height="1024" viewBox="0 0 1024 1024" fill="none" xmlns="http://www.w3.org/2000/svg">
<g clip-path="url(#clip0_431_124)">
<path d="M10 424.911C10 312.294 101.294 221 213.911 221L810.089 221C922.706 221 1014 312.294 1014 424.911V650.189C1014 839.093 749.517 882.576 689.037 703.615C631.791 534.224 392.209 534.224 334.963 703.615C274.483 882.576 10 839.093 10 650.189L10 424.911Z" fill="#EC1B23" stroke="black" stroke-width="20"/>
<path d="M203 245.5H822C910.089 245.5 981.5 316.911 981.5 405V442C981.5 530.089 910.089 601.5 822 601.5H766.556C754.955 601.5 743.388 600.234 732.06 597.725L548.413 557.044C524.099 551.658 498.9 551.663 474.588 557.06L291.472 597.71C280.123 600.229 268.532 601.5 256.906 601.5H203C114.911 601.5 43.5 530.089 43.5 442V405C43.5 316.911 114.911 245.5 203 245.5Z" fill="#FDFDFD" stroke="black" stroke-width="11"/>
<rect x="38" y="398" width="949" height="50" fill="black"/>
<circle cx="512" cy="423" r="39.5" fill="#FDFDFD" stroke="black" stroke-width="21"/>
<path d="M436.96 497C436.96 536.465 404.644 568.5 364.73 568.5C324.815 568.5 292.5 536.465 292.5 497C292.5 457.535 324.815 425.5 364.73 425.5C404.644 425.5 436.96 457.535 436.96 497Z" fill="#EBEBEB" stroke="black" stroke-width="5"/>
<ellipse cx="364.73" cy="497" rx="40.3945" ry="40" fill="#D9D9D9"/>
<path d="M316.616 380C316.616 449.289 259.886 505.5 189.854 505.5C119.822 505.5 63.0917 449.289 63.0917 380C63.0917 310.711 119.822 254.5 189.854 254.5C259.886 254.5 316.616 310.711 316.616 380Z" fill="#EBEBEB" stroke="black" stroke-width="5"/>
<rect x="164.607" y="290" width="50.4931" height="180" rx="25.2465" fill="#D9D9D9"/>
<rect x="89.8777" y="408" width="55" height="199.953" rx="27.5" transform="rotate(-90 89.8777 408)" fill="#D9D9D9"/>
<path d="M960.908 380C960.908 449.289 904.178 505.5 834.146 505.5C764.114 505.5 707.384 449.289 707.384 380C707.384 310.711 764.114 254.5 834.146 254.5C904.178 254.5 960.908 310.711 960.908 380Z" fill="#EBEBEB" stroke="black" stroke-width="5"/>
<ellipse cx="834.146" cy="307" rx="25.2465" ry="25" fill="#D9D9D9"/>
<ellipse cx="834.146" cy="453" rx="25.2465" ry="25" fill="#D9D9D9"/>
<ellipse cx="907.866" cy="380" rx="25.2465" ry="25" fill="#D9D9D9"/>
<ellipse cx="760.426" cy="380" rx="25.2465" ry="25" fill="#D9D9D9"/>
<path d="M732.96 497C732.96 536.465 700.644 568.5 660.73 568.5C620.815 568.5 588.5 536.465 588.5 497C588.5 457.535 620.815 425.5 660.73 425.5C700.644 425.5 732.96 457.535 732.96 497Z" fill="#EBEBEB" stroke="black" stroke-width="5"/>
<ellipse cx="660.73" cy="497" rx="40.3945" ry="40" fill="#D9D9D9"/>
</g>
<defs>
<clipPath id="clip0_431_124">
<rect width="1024" height="1024" fill="white"/>
</clipPath>
</defs>
</svg>
