<svg width="1024" height="1024" viewBox="0 0 1024 1024" fill="none" xmlns="http://www.w3.org/2000/svg">
<path d="M186 571H722C782.751 571 832 620.249 832 681V746C832 801.228 787.228 846 732 846H366C266.589 846 186 765.411 186 666V571Z" fill="#FDFDFD"/>
<path d="M134.408 533.775C100.493 341.435 228.922 158.02 421.262 124.105V124.105C424.724 123.495 428.026 125.807 428.636 129.269L495.455 508.215L140.924 570.729L134.408 533.775Z" fill="#EC1B23"/>
<path d="M884.992 556.587C856.079 564.266 826.289 568.153 796.373 568.149C705.28 568.149 619.733 532.736 555.477 468.48C513.282 426.041 482.947 373.285 467.495 315.468C452.044 257.652 452.015 196.796 467.413 138.965C469.336 131.735 469.324 124.126 467.378 116.901C465.432 109.677 461.62 103.091 456.325 97.8049C451.03 92.5187 444.438 88.7178 437.211 86.7834C429.983 84.849 422.374 84.8492 415.147 86.784C342.748 106.077 276.696 144.069 223.616 196.949C57.3013 363.264 57.3013 633.984 223.616 800.384C263.148 840.136 310.171 871.653 361.964 893.112C413.758 914.57 469.292 925.544 525.355 925.397C581.402 925.555 636.924 914.59 688.704 893.138C740.484 871.687 787.493 840.174 827.008 800.427C879.928 747.336 917.937 681.25 937.216 608.811C939.131 601.583 939.115 593.979 937.17 586.76C935.225 579.54 931.418 572.958 926.131 567.671C920.844 562.384 914.262 558.578 907.043 556.633C899.823 554.687 892.22 554.672 884.992 556.587ZM766.72 740.096C735.103 771.887 697.494 797.091 656.071 814.251C614.649 831.41 570.234 840.184 525.397 840.064C480.546 840.175 436.117 831.394 394.681 814.228C353.244 797.061 315.622 771.851 283.989 740.053C150.955 606.976 150.955 390.4 283.989 257.323C309.696 231.645 339.375 210.279 371.883 194.048C367.124 255.448 375.678 317.151 396.959 374.941C418.24 432.731 451.747 485.246 495.189 528.896C538.743 572.475 591.243 606.074 649.057 627.371C706.871 648.669 768.621 657.156 830.037 652.245C813.718 684.698 792.346 714.351 766.72 740.096Z" fill="black"/>
<path d="M565.001 496.277H149.999C126.804 496.277 108 515.081 108 538.276C108 561.472 126.804 580.275 149.999 580.275H565.001C588.196 580.275 607 561.472 607 538.276C607 515.081 588.196 496.277 565.001 496.277Z" fill="black"/>
<path d="M357.084 591.888C387.153 591.888 411.528 567.513 411.528 537.444C411.528 507.375 387.153 483 357.084 483C327.015 483 302.64 507.375 302.64 537.444C302.64 567.513 327.015 591.888 357.084 591.888Z" fill="white" stroke="black" stroke-width="30"/>
</svg>
