<svg width="1024" height="1024" viewBox="0 0 1024 1024" fill="none" xmlns="http://www.w3.org/2000/svg">
<mask id="path-1-inside-1_413_2" fill="white">
<path d="M904 511.5C904 615.332 862.753 714.912 789.332 788.332C715.912 861.753 616.332 903 512.5 903C408.668 903 309.088 861.753 235.668 788.332C162.247 714.912 121 615.332 121 511.5L512.5 511.5H904Z"/>
</mask>
<path d="M904 511.5C904 615.332 862.753 714.912 789.332 788.332C715.912 861.753 616.332 903 512.5 903C408.668 903 309.088 861.753 235.668 788.332C162.247 714.912 121 615.332 121 511.5L512.5 511.5H904Z" fill="#FDFDFD" stroke="black" stroke-width="62" mask="url(#path-1-inside-1_413_2)"/>
<mask id="path-2-inside-2_413_2" fill="white">
<path d="M121 513.5C121 409.668 162.247 310.088 235.668 236.668C309.088 163.247 408.668 122 512.5 122C616.332 122 715.912 163.247 789.332 236.668C862.753 310.088 904 409.668 904 513.5L512.5 513.5L121 513.5Z"/>
</mask>
<path d="M121 513.5C121 409.668 162.247 310.088 235.668 236.668C309.088 163.247 408.668 122 512.5 122C616.332 122 715.912 163.247 789.332 236.668C862.753 310.088 904 409.668 904 513.5L512.5 513.5L121 513.5Z" fill="#EC1B23" stroke="black" stroke-width="62" mask="url(#path-2-inside-2_413_2)"/>
<path d="M555 512C555 535.871 535.85 555 512.5 555C489.15 555 470 535.871 470 512C470 488.129 489.15 469 512.5 469C535.85 469 555 488.129 555 512Z" fill="#FDFDFD" stroke="black" stroke-width="30"/>
<path d="M470.648 607.273V604.716C470.932 577.585 473.773 555.994 479.17 539.943C484.568 523.892 492.239 510.895 502.182 500.952C512.125 491.009 524.057 481.847 537.977 473.466C546.358 468.352 553.886 462.315 560.562 455.355C567.239 448.253 572.494 440.085 576.33 430.852C580.307 421.619 582.295 411.392 582.295 400.17C582.295 386.25 579.028 374.176 572.494 363.949C565.96 353.722 557.224 345.838 546.287 340.298C535.349 334.759 523.205 331.989 509.852 331.989C498.205 331.989 486.983 334.403 476.188 339.233C465.392 344.062 456.372 351.662 449.128 362.031C441.884 372.401 437.693 385.966 436.557 402.727H382.864C384 378.58 390.25 357.912 401.614 340.724C413.119 323.537 428.247 310.398 446.997 301.307C465.889 292.216 486.841 287.67 509.852 287.67C534.852 287.67 556.585 292.642 575.051 302.585C593.659 312.528 608.006 326.165 618.091 343.494C628.318 360.824 633.432 380.568 633.432 402.727C633.432 418.352 631.017 432.486 626.188 445.128C621.5 457.77 614.682 469.062 605.733 479.006C596.926 488.949 586.273 497.756 573.773 505.426C561.273 513.239 551.259 521.477 543.73 530.142C536.202 538.665 530.733 548.821 527.324 560.611C523.915 572.401 522.068 587.102 521.784 604.716V607.273H470.648ZM497.92 733.409C487.409 733.409 478.389 729.645 470.861 722.116C463.332 714.588 459.568 705.568 459.568 695.057C459.568 684.545 463.332 675.526 470.861 667.997C478.389 660.469 487.409 656.705 497.92 656.705C508.432 656.705 517.452 660.469 524.98 667.997C532.509 675.526 536.273 684.545 536.273 695.057C536.273 702.017 534.497 708.409 530.946 714.233C527.537 720.057 522.92 724.744 517.097 728.295C511.415 731.705 505.023 733.409 497.92 733.409Z" fill="white"/>
<path d="M470.648 607.273H460.648V617.273H470.648V607.273ZM470.648 604.716L460.648 604.611L460.648 604.664V604.716H470.648ZM479.17 539.943L469.692 536.756L469.692 536.756L479.17 539.943ZM502.182 500.952L509.253 508.023L509.253 508.023L502.182 500.952ZM537.977 473.466L543.135 482.033L543.161 482.018L543.186 482.002L537.977 473.466ZM560.562 455.355L567.779 462.277L567.814 462.241L567.849 462.204L560.562 455.355ZM576.33 430.852L567.145 426.896L567.12 426.956L567.095 427.016L576.33 430.852ZM476.188 339.233L472.104 330.105L472.104 330.105L476.188 339.233ZM449.128 362.031L457.325 367.758L457.325 367.758L449.128 362.031ZM436.557 402.727V412.727H445.902L446.534 403.404L436.557 402.727ZM382.864 402.727L372.875 402.257L372.382 412.727H382.864V402.727ZM401.614 340.724L393.304 335.162L393.288 335.185L393.272 335.209L401.614 340.724ZM446.997 301.307L442.661 292.296L442.648 292.302L442.634 292.309L446.997 301.307ZM575.051 302.585L570.31 311.39L570.324 311.397L570.338 311.405L575.051 302.585ZM618.091 343.494L609.448 348.524L609.463 348.551L609.479 348.577L618.091 343.494ZM626.188 445.128L616.846 441.559L616.828 441.605L616.811 441.651L626.188 445.128ZM605.733 479.006L598.3 472.316L598.273 472.346L598.247 472.375L605.733 479.006ZM573.773 505.426L568.543 496.903L568.508 496.924L568.473 496.946L573.773 505.426ZM543.73 530.142L551.225 536.762L551.252 536.732L551.279 536.701L543.73 530.142ZM521.784 604.716L511.785 604.555L511.784 604.635V604.716H521.784ZM521.784 607.273V617.273H531.784V607.273H521.784ZM470.861 722.116L477.932 715.045L477.932 715.045L470.861 722.116ZM470.861 667.997L477.932 675.068L477.932 675.068L470.861 667.997ZM530.946 714.233L522.408 709.027L522.361 709.104L522.316 709.181L530.946 714.233ZM517.097 728.295L522.242 736.87L522.272 736.852L522.303 736.833L517.097 728.295ZM480.648 607.273V604.716H460.648V607.273H480.648ZM480.647 604.821C480.926 578.187 483.725 557.774 488.649 543.131L469.692 536.756C463.821 554.215 460.938 576.983 460.648 604.611L480.647 604.821ZM488.649 543.131C493.654 528.247 500.602 516.674 509.253 508.023L495.111 493.881C483.875 505.116 475.482 519.537 469.692 536.756L488.649 543.131ZM509.253 508.023C518.541 498.735 529.806 490.058 543.135 482.033L532.819 464.899C518.308 473.635 505.709 483.282 495.111 493.881L509.253 508.023ZM543.186 482.002C552.289 476.448 560.495 469.871 567.779 462.277L553.346 448.433C547.277 454.76 540.426 460.257 532.769 464.93L543.186 482.002ZM567.849 462.204C575.372 454.201 581.279 445.006 585.565 434.688L567.095 427.016C563.71 435.165 559.105 442.305 553.276 448.506L567.849 462.204ZM585.514 434.809C590.089 424.188 592.295 412.594 592.295 400.17H572.295C572.295 410.19 570.525 419.05 567.145 426.896L585.514 434.809ZM592.295 400.17C592.295 384.629 588.627 370.626 580.921 358.565L564.067 369.333C569.43 377.726 572.295 387.871 572.295 400.17H592.295ZM580.921 358.565C573.414 346.814 563.321 337.717 550.805 331.377L541.769 349.219C551.127 353.959 558.507 360.629 564.067 369.333L580.921 358.565ZM550.805 331.377C538.345 325.066 524.632 321.989 509.852 321.989V341.989C521.777 341.989 532.353 344.451 541.769 349.219L550.805 331.377ZM509.852 321.989C496.775 321.989 484.164 324.71 472.104 330.105L480.271 348.361C489.802 344.097 499.634 341.989 509.852 341.989V321.989ZM472.104 330.105C459.539 335.726 449.137 344.557 440.93 356.304L457.325 367.758C463.607 358.767 471.245 352.399 480.271 348.361L472.104 330.105ZM440.93 356.304C432.356 368.577 427.8 384.054 426.58 402.051L446.534 403.404C447.587 387.878 451.411 376.224 457.325 367.758L440.93 356.304ZM436.557 392.727H382.864V412.727H436.557V392.727ZM392.853 403.197C393.919 380.534 399.746 361.681 409.955 346.24L393.272 335.209C380.754 354.142 374.081 376.625 372.875 402.257L392.853 403.197ZM409.924 346.287C420.434 330.586 434.195 318.627 451.36 310.305L442.634 292.309C422.3 302.168 405.805 316.487 393.304 335.162L409.924 346.287ZM451.333 310.318C468.745 301.939 488.194 297.67 509.852 297.67V277.67C485.488 277.67 463.034 282.492 442.661 292.296L451.333 310.318ZM509.852 297.67C533.514 297.67 553.557 302.369 570.31 311.39L579.792 293.78C559.614 282.915 536.19 277.67 509.852 277.67V297.67ZM570.338 311.405C587.399 320.522 600.346 332.883 609.448 348.524L626.734 338.464C615.666 319.446 599.919 304.535 579.764 293.765L570.338 311.405ZM609.479 348.577C618.707 364.214 623.432 382.17 623.432 402.727H643.432C643.432 378.967 637.929 357.434 626.703 338.412L609.479 348.577ZM623.432 402.727C623.432 417.318 621.178 430.218 616.846 441.559L635.529 448.697C640.856 434.753 643.432 419.386 643.432 402.727H623.432ZM616.811 441.651C612.559 453.119 606.397 463.319 598.3 472.316L613.166 485.695C622.966 474.806 630.441 462.421 635.564 448.604L616.811 441.651ZM598.247 472.375C590.159 481.507 580.288 489.695 568.543 496.903L579.003 513.949C592.257 505.816 603.693 496.391 613.219 485.636L598.247 472.375ZM568.473 496.946C555.358 505.143 544.514 513.993 536.181 523.583L551.279 536.701C558.003 528.962 567.188 521.334 579.073 513.906L568.473 496.946ZM536.235 523.522C527.651 533.239 521.504 544.737 517.717 557.833L536.93 563.389C539.962 552.906 544.752 544.09 551.225 536.762L536.235 523.522ZM517.717 557.833C513.981 570.754 512.078 586.405 511.785 604.555L531.783 604.877C532.058 587.8 533.848 574.047 536.93 563.389L517.717 557.833ZM511.784 604.716V607.273H531.784V604.716H511.784ZM521.784 597.273H470.648V617.273H521.784V597.273ZM497.92 723.409C490.099 723.409 483.612 720.726 477.932 715.045L463.79 729.188C473.166 738.564 484.719 743.409 497.92 743.409V723.409ZM477.932 715.045C472.252 709.365 469.568 702.878 469.568 695.057H449.568C449.568 708.258 454.413 719.811 463.79 729.188L477.932 715.045ZM469.568 695.057C469.568 687.236 472.252 680.748 477.932 675.068L463.79 660.926C454.413 670.303 449.568 681.855 449.568 695.057H469.568ZM477.932 675.068C483.612 669.388 490.099 666.705 497.92 666.705V646.705C484.719 646.705 473.166 651.549 463.79 660.926L477.932 675.068ZM497.92 666.705C505.742 666.705 512.229 669.388 517.909 675.068L532.051 660.926C522.675 651.549 511.122 646.705 497.92 646.705V666.705ZM517.909 675.068C523.589 680.748 526.273 687.236 526.273 695.057H546.273C546.273 681.855 541.428 670.303 532.051 660.926L517.909 675.068ZM526.273 695.057C526.273 700.22 524.983 704.805 522.408 709.027L539.484 719.439C544.012 712.014 546.273 703.814 546.273 695.057H526.273ZM522.316 709.181C519.752 713.562 516.318 717.058 511.891 719.757L522.303 736.833C529.523 732.431 535.322 726.552 539.576 719.285L522.316 709.181ZM511.952 719.721C507.936 722.13 503.346 723.409 497.92 723.409V743.409C506.7 743.409 514.894 741.279 522.242 736.87L511.952 719.721Z" fill="black"/>
</svg>
