<svg width="320" height="200" viewBox="0 0 320 200" fill="none" xmlns="http://www.w3.org/2000/svg">
<path d="M223.523 131.661L208.807 130.113L207.941 151L208.023 159.905L222.103 163V144.3L232.172 146.75L244.178 122.117L287.681 131.919L316.339 98.9035C296.33 87.9413 258.373 83.9433 236.427 85.233L228.3 97.2269L223.523 131.661Z" fill="#2AA6FF"/>
<path d="M207 157.325C207.314 158.128 207.629 158.919 207.941 159.701L208.023 159.905M208.023 159.905L222.103 163V144.3L232.172 146.75L244.178 122.117L287.681 131.919L316.339 98.9035C296.33 87.9413 258.373 83.9433 236.427 85.233L228.3 97.2269L223.523 131.661C223.523 131.661 214.554 130.718 208.807 130.113L207.941 151L208.023 159.905Z" stroke="#484848" stroke-width="4"/>
<path d="M268 86L286 88.5L315.5 98.5L288.592 132.68L244 122.045C262 128 268 86 268 86Z" fill="#484848"/>
<rect x="31.8711" y="34.1108" width="175.633" height="130.475" rx="2.5" fill="#2AA6FF" stroke="#484848" stroke-width="5"/>
<path d="M96.2054 55.0931L158.779 163.473H33.6323L96.2054 55.0931Z" fill="#484848"/>
<path d="M151.298 68.6406L206.05 163.473H96.5468L151.298 68.6406Z" fill="#484848"/>
<circle cx="182.006" cy="55.0931" r="13.5475" fill="#484848"/>
<path d="M32.3388 35.8142L31.8427 36.0259L31.747 36.5567L30.0588 45.9296C26.3736 42.5312 20.504 36.4505 17.9293 33.7083C15.0499 30.6416 12.6088 27.6774 10.7402 24.9866C8.86447 22.2854 7.63389 19.9573 7.06548 18.1263C6.48038 16.2415 6.69177 15.2187 7.11335 14.7279C7.53494 14.2371 8.5142 13.8739 10.4657 14.1681C12.3614 14.4538 14.8485 15.3193 17.8017 16.7662C20.7435 18.2075 24.042 20.1737 27.5078 22.5577C30.2386 24.436 34.8749 28.4743 38.4262 31.5675C38.8689 31.9531 39.2948 32.3241 39.6981 32.6743L32.3388 35.8142Z" fill="#2AA6FF" stroke="#484848" stroke-width="2"/>
<path d="M24.4763 20.1175C24.2325 19.9607 20.2025 17.4592 17.393 16.035C14.5835 14.6109 12.1623 13.7054 10.2676 13.3703C8.37285 13.0352 7.04174 13.2771 6.35025 14.0821C5.65876 14.887 5.62042 16.2394 6.23743 18.0619C6.85444 19.8844 8.1147 22.1414 9.94628 24.704C11.7778 27.2665 14.1449 30.0845 16.9122 32.997C19.6794 35.9096 21.6116 37.8975 21.6116 37.8975C21.6116 37.8975 19.81 24.657 24.4763 20.1175Z" fill="#484848"/>
<mask id="path-10-inside-1_504_41" fill="white">
<path d="M206.391 34.7719C206.391 30.2056 206.158 25.684 205.704 21.4653C205.25 17.2465 204.585 13.4133 203.746 10.1845C202.907 6.95558 201.912 4.3943 200.816 2.64685C199.72 0.899401 198.546 -1.996e-07 197.36 0C196.174 1.996e-07 194.999 0.899402 193.904 2.64685C192.808 4.3943 191.812 6.95558 190.973 10.1845C190.135 13.4133 189.47 17.2465 189.016 21.4653C188.562 25.684 188.328 30.2056 188.328 34.7719L197.36 34.7719H206.391Z"/>
</mask>
<path d="M206.391 34.7719C206.391 30.2056 206.158 25.684 205.704 21.4653C205.25 17.2465 204.585 13.4133 203.746 10.1845C202.907 6.95558 201.912 4.3943 200.816 2.64685C199.72 0.899401 198.546 -1.996e-07 197.36 0C196.174 1.996e-07 194.999 0.899402 193.904 2.64685C192.808 4.3943 191.812 6.95558 190.973 10.1845C190.135 13.4133 189.47 17.2465 189.016 21.4653C188.562 25.684 188.328 30.2056 188.328 34.7719L197.36 34.7719H206.391Z" fill="#2AA6FF" stroke="#484848" stroke-width="4" mask="url(#path-10-inside-1_504_41)"/>
<path d="M205.104 24.6713C205.795 27.1281 203.884 12.994 203.133 9.93488C202.383 6.87573 201.492 4.44909 200.512 2.79349C199.531 1.13789 198.481 0.285766 197.419 0.285767C196.358 0.285767 195.307 1.13789 194.327 2.79349C193.347 4.44909 192.456 6.87573 191.705 9.93488C190.955 12.994 191.059 11.2202 190.653 15.2172C190.247 19.2141 190.449 19.2657 190.449 19.2657C189.744 12.9871 204.413 22.2144 205.104 24.6713Z" fill="#484848"/>
</svg>
