<svg width="1024" height="1024" viewBox="0 0 1024 1024" fill="none" xmlns="http://www.w3.org/2000/svg">
<mask id="path-1-inside-1_236_53" fill="white">
<path d="M693 512C693 488.231 688.318 464.694 679.222 442.734C670.126 420.774 656.794 400.821 639.986 384.014C623.179 367.206 603.226 353.874 581.266 344.778C559.306 335.682 535.769 331 512 331C488.231 331 464.694 335.682 442.734 344.778C420.774 353.874 400.821 367.206 384.014 384.014C367.206 400.821 353.874 420.774 344.778 442.734C335.682 464.694 331 488.231 331 512L512 512H693Z"/>
</mask>
<path d="M693 512C693 488.231 688.318 464.694 679.222 442.734C670.126 420.774 656.794 400.821 639.986 384.014C623.179 367.206 603.226 353.874 581.266 344.778C559.306 335.682 535.769 331 512 331C488.231 331 464.694 335.682 442.734 344.778C420.774 353.874 400.821 367.206 384.014 384.014C367.206 400.821 353.874 420.774 344.778 442.734C335.682 464.694 331 488.231 331 512L512 512H693Z" fill="#EC1B23" stroke="black" stroke-width="40" mask="url(#path-1-inside-1_236_53)"/>
<mask id="path-2-inside-2_236_53" fill="white">
<path d="M331 512C331 535.769 335.682 559.306 344.778 581.266C353.874 603.226 367.206 623.179 384.014 639.986C400.821 656.794 420.774 670.126 442.734 679.222C464.694 688.318 488.231 693 512 693C535.769 693 559.306 688.318 581.266 679.222C603.226 670.126 623.179 656.794 639.986 639.986C656.794 623.179 670.126 603.226 679.222 581.266C688.318 559.306 693 535.769 693 512H512L331 512Z"/>
</mask>
<path d="M331 512C331 535.769 335.682 559.306 344.778 581.266C353.874 603.226 367.206 623.179 384.014 639.986C400.821 656.794 420.774 670.126 442.734 679.222C464.694 688.318 488.231 693 512 693C535.769 693 559.306 688.318 581.266 679.222C603.226 670.126 623.179 656.794 639.986 639.986C656.794 623.179 670.126 603.226 679.222 581.266C688.318 559.306 693 535.769 693 512H512L331 512Z" fill="#FDFDFD" stroke="black" stroke-width="40" mask="url(#path-2-inside-2_236_53)"/>
<path d="M684.987 483H339.013C319.676 483 304 495.984 304 512C304 528.016 319.676 541 339.013 541H684.987C704.324 541 720 528.016 720 512C720 495.984 704.324 483 684.987 483Z" fill="black"/>
<path d="M511.214 549.468C532.054 549.468 548.948 532.574 548.948 511.734C548.948 490.894 532.054 474 511.214 474C490.374 474 473.48 490.894 473.48 511.734C473.48 532.574 490.374 549.468 511.214 549.468Z" fill="white" stroke="black" stroke-width="20"/>
<path d="M512 720C626.875 720 720 626.875 720 512C720 397.125 626.875 304 512 304C397.125 304 304 397.125 304 512C304 626.875 397.125 720 512 720Z" stroke="white" stroke-width="50" stroke-linecap="round" stroke-linejoin="round"/>
<path d="M512 80V144V80ZM176 848L208 816L176 848ZM816 816L848 848L816 816ZM816 208L848 176L816 208ZM208 208L176 176L208 208ZM144 512H80H144ZM944 512H880H944ZM512 880V944V880Z" stroke="white" stroke-width="50" stroke-linecap="round" stroke-linejoin="round"/>
</svg>
