<svg width="320" height="107" viewBox="0 0 320 107" fill="none" xmlns="http://www.w3.org/2000/svg">
<mask id="path-1-inside-1_318_24" fill="white">
<path d="M0 27H320V107H0V27Z"/>
</mask>
<path d="M0 27H320V107H0V27Z" fill="#FDFDFD"/>
<path d="M0 29H320V25H0V29Z" fill="black" mask="url(#path-1-inside-1_318_24)"/>
<path d="M185.806 27C185.806 30.5457 185.086 34.0567 183.685 37.3325C182.284 40.6082 180.231 43.5847 177.643 46.0919C175.055 48.5991 171.983 50.5879 168.601 51.9447C165.22 53.3016 161.596 54 157.935 54C154.275 54 150.651 53.3016 147.27 51.9447C143.888 50.5879 140.816 48.5991 138.228 46.0919C135.64 43.5847 133.587 40.6082 132.186 37.3325C130.785 34.0567 130.065 30.5457 130.065 27L157.935 27H185.806Z" fill="black"/>
<ellipse cx="157.935" cy="27" rx="25.8065" ry="25" fill="#2aa6ff"/>
</svg>
